# xmcd CD database file
#
# Track frame offsets:
#	150
#	18271
#	35097
#	50387
#	66505
#	94595
#	116607
#	140796
#	168746
#	186919
#	206179
#	222329
#	237173
#	256444
#
# Disc length: 3670 seconds
#
# Revision: 1
# Processed by: cddbd v1.5.2PL0 Copyright (c) Steve Scherf et al.
# Submitted via: CDex 1.51
#
DISCID=da0e540e
DTITLE=Billy Crash - Bluesworscht
DYEAR=2009
DGENRE=Blues
TTITLE0=Bluesworscht
TTITLE1=Heimat
TTITLE2=Ännie
TTITLE3=Loss uns donze
TTITLE4=lieb dich zwaamol
TTITLE5=Koo Panik
TTITLE6=Meedcher aus Rhoihesse
TTITLE7=Widder mool hoom
TTITLE8=Sixty special
TTITLE9=Wollt emol
TTITLE10=Naggisch vor de Tür
TTITLE11=Un die Mussig spielt
TTITLE12=Is wahr
TTITLE13=Lisbeth
EXTD=YEAR: 2009
EXTT0=
EXTT1=
EXTT2=
EXTT3=
EXTT4=
EXTT5=
EXTT6=
EXTT7=
EXTT8=
EXTT9=
EXTT10=
EXTT11=
EXTT12=
EXTT13=
PLAYORDER=
